<svg width="108" height="21" viewBox="0 0 108 21" fill="none" xmlns="http://www.w3.org/2000/svg">
<path d="M4.08334 0H0V3.8H4.08334V0Z" fill="black"/>
<path d="M8.16668 0H4.08334V3.8H8.16668V0Z" fill="black"/>
<path d="M12.25 0H8.16666V3.8H12.25V0Z" fill="black"/>
<path d="M4.08334 3.8H0V7.59999H4.08334V3.8Z" fill="black"/>
<path d="M4.08334 7.60001H0V11.4H4.08334V7.60001Z" fill="black"/>
<path d="M8.16668 7.60001H4.08334V11.4H8.16668V7.60001Z" fill="black"/>
<path d="M12.25 7.60001H8.16666V11.4H12.25V7.60001Z" fill="black"/>
<path d="M4.08334 11.4H0V15.2H4.08334V11.4Z" fill="black"/>
<path d="M8.16668 11.4H4.08334V15.2H8.16668V11.4Z" fill="black"/>
<path d="M4.08334 15.2H0V19H4.08334V15.2Z" fill="black"/>
<path d="M8.16668 15.2H4.08334V19H8.16668V15.2Z" fill="black"/>
<path d="M12.25 15.2H8.16666V19H12.25V15.2Z" fill="black"/>
<path d="M20.4166 0H16.3334V3.8H20.4166V0Z" fill="black"/>
<path d="M20.4166 3.8H16.3334V7.59999H20.4166V3.8Z" fill="black"/>
<path d="M20.4166 7.60001H16.3334V11.4H20.4166V7.60001Z" fill="black"/>
<path d="M20.4166 11.4H16.3334V15.2H20.4166V11.4Z" fill="black"/>
<path d="M24.5 11.4H20.4166V15.2H24.5V11.4Z" fill="black"/>
<path d="M28.5834 7.60001H24.5V11.4H28.5834V7.60001Z" fill="black"/>
<path d="M32.6666 11.4H28.5834V15.2H32.6666V11.4Z" fill="black"/>
<path d="M32.6666 7.60001H28.5834V11.4H32.6666V7.60001Z" fill="black"/>
<path d="M36.75 3.8H32.6666V7.59999H36.75V3.8Z" fill="black"/>
<path d="M36.75 0H32.6666V3.8H36.75V0Z" fill="black"/>
<path d="M40.8334 0H36.75V3.8H40.8334V0Z" fill="black"/>
<path d="M44.9166 0H40.8334V3.8H44.9166V0Z" fill="black"/>
<path d="M49 0H44.9166V3.8H49V0Z" fill="black"/>
<path d="M40.8334 3.8H36.75V7.59999H40.8334V3.8Z" fill="black"/>
<path d="M49 3.8H44.9166V7.59999H49V3.8Z" fill="black"/>
<path d="M40.8334 7.60001H36.75V11.4H40.8334V7.60001Z" fill="black"/>
<path d="M44.9166 7.60001H40.8334V11.4H44.9166V7.60001Z" fill="black"/>
<path d="M40.8334 11.4H36.75V15.2H40.8334V11.4Z" fill="black"/>
<path d="M49 11.4H44.9166V15.2H49V11.4Z" fill="black"/>
<path d="M40.8334 15.2H36.75V19H40.8334V15.2Z" fill="black"/>
<path d="M49 15.2H44.9166V19H49V15.2Z" fill="black"/>
<path d="M52.5313 7L53.9688 9.45312L55.4063 7H56.4688L54.5313 10L56.4688 13H55.4063L53.9688 10.6719L52.5313 13H51.4688L53.375 10L51.4688 7H52.5313Z" fill="black"/>
<path d="M59.72 13.144V7.6H63.116V8.692H64.076V7.6H66.392V8.692H67.472V13.144H66.272V8.8H64.196V13.144H62.996V8.8H60.932V13.144H59.72ZM69.7768 13.144V12.064H68.6848V8.692H69.7768V7.6H73.0528V5.428H74.2648V12.064H73.1608V13.144H69.7768ZM69.8968 11.944H73.0408V8.8H69.8968V11.944ZM75.4817 13.144V7.6H78.8777V8.692H79.8377V7.6H82.1537V8.692H83.2337V13.144H82.0337V8.8H79.9577V13.144H78.7577V8.8H76.6937V13.144H75.4817ZM85.6558 13.144V12.064H84.5638V8.692H85.6558V7.6H89.0398V8.692H90.1438V11.944H91.2358V13.144H90.0238V12.064H89.0398V13.144H85.6558ZM85.7758 11.944H88.9198V8.8H85.7758V11.944Z" fill="black"/>
</svg>
